<svg xmlns="http://www.w3.org/2000/svg" version="1.1" xmlns:xlink="http://www.w3.org/1999/xlink" xmlns:svgjs="http://svgjs.dev/svgjs" viewBox="0 0 6.2208984375 6.901363140614934"><g transform="matrix(0.8571428571428572,0,0,0.8571428571428572,0.8886997767857139,4.999773027892439)"><g transform="matrix(1,0,0,1,0,0)" clip-path="url(#SvgjsClipPath23761)"><g clip-path="url(#SvgjsClipPath2375918a3d8ea-07a3-415e-a367-a51a34e74730)"><path d=" M 1.469702654532743 -3.617208373272672 L 1.469702654532743 -2.494773367182467 C 1.7673909269210235 -2.494773367182467 2.0528866626948323 -2.376517161425266 2.2633840587803005 -2.1660197653398106 C 2.473881454865743 -1.9555223692543553 2.592137660622953 -1.6700266334805334 2.592137660622953 -1.3723383610922624 L 1.469702654532743 -1.3723383610922624 C 1.1720143821444624 -1.3723383610922624 0.8865186463706534 -1.4905945668494645 0.6760212502852109 -1.7010919629349188 C 0.46552385419974285 -1.9115893590203732 0.347267648442533 -2.1970850947941942 0.347267648442533 -2.494773367182467 L 0.347267648442533 -3.617208373272672 C 0.347267648442533 -3.914887763542805 0.4655269395256763 -4.200373564034551 0.676027114994215 -4.410855613250131 C 0.8865272904627282 -4.62133766246571 1.1720232736884877 -4.7395723687573055 1.4697026586938238 -4.739546734364577 L 3.7144760217152357 -4.739546734364577 L 3.7144760217152357 -3.617208373272672 Z" fill="#3682ae" transform="matrix(1,0,0,1,0,0)" fill-rule="evenodd"></path></g><g clip-path="url(#SvgjsClipPath2375918a3d8ea-07a3-415e-a367-a51a34e74730)"><path d=" M 2.592137660622953 -1.3723383610922633 L 3.7144760217152357 -1.3723383610922633 L 3.7144760217152357 -3.617208373272672 C 4.01216429410349 -3.617208373272672 4.297660029877325 -3.49895216751547 4.508157425962768 -3.2884547714300147 C 4.71865482204821 -3.0779573753445604 4.83691102780542 -2.792461639570739 4.83691102780542 -2.494773367182467 L 4.83691102780542 -1.3723383610922624 C 4.83691102780542 -1.0746589708221284 4.718651736722302 -0.7891731703303821 4.508151561253738 -0.5786911211148027 C 4.297651385785224 -0.3682090718992237 4.012155402559491 -0.24997436560762942 3.714476017554155 -0.25000000000035794 L 2.592137660622953 -0.25000000000035794 Z" fill="#a5b2ba" transform="matrix(1,0,0,1,0,0)" fill-rule="evenodd"></path></g><g clip-path="url(#SvgjsClipPath2375918a3d8ea-07a3-415e-a367-a51a34e74730)"><path d=" M 2.5263224170249314 -3.2520835710504574 C 2.74462885889949 -3.252083571050459 2.9539940372691915 -3.16536167468107 3.10836000269538 -3.0109957092548756 C 3.262725968121569 -2.856629743828682 3.3494478644909624 -2.647264565458986 3.3494478644909624 -2.4289581235844455 L 2.5263224170249314 -2.4289581235844455 Z" fill="#102036" transform="matrix(1,0,0,1,0,0)" fill-rule="evenodd"></path></g></g><g><path d=" M 0.171 0.24150000000000016 C 0.177 0.22350000000000014 0.2415 0.055500000000000105 0.20550000000000002 0.034500000000000086 C 0.195 0.02850000000000008 0.153 0.012000000000000122 0.14400000000000002 0.012000000000000122 C 0.147 0.018000000000000127 0.15 0.030000000000000138 0.147 0.034500000000000086 C 0.12 0.13050000000000006 0.0075 0.4155000000000001 -0.0195 0.552 C -0.025500000000000002 0.5760000000000001 -0.0345 0.6225 -0.0345 0.6480000000000001 C -0.033 0.6885000000000001 -0.009000000000000001 0.7275000000000001 0.042 0.7410000000000001 L 0.043500000000000004 0.7395000000000002 C 0.043500000000000004 0.7365000000000002 0.042 0.7365000000000002 0.039 0.7320000000000001 L 0.039 0.7290000000000001 L 0.048 0.7395000000000002 L 0.051000000000000004 0.7365000000000002 C 0.039 0.7530000000000001 0.03 0.7695000000000001 0.021 0.7845000000000001 C 0.0165 0.7860000000000001 0.0105 0.7905000000000001 0.0105 0.7950000000000002 L 0.015 0.8010000000000002 C 0.0495 0.8205000000000001 0.06 0.8385000000000001 0.111 0.8385000000000001 C 0.1125 0.8385000000000001 0.1155 0.8385000000000001 0.117 0.8385000000000001 C 0.14250000000000002 0.8385000000000001 0.1515 0.8295000000000001 0.171 0.8220000000000002 C 0.2415 0.7755000000000001 0.318 0.6690000000000002 0.34950000000000003 0.5700000000000001 C 0.3675 0.5535000000000001 0.462 0.5055000000000001 0.4935 0.4965000000000001 L 0.4935 0.4950000000000001 L 0.492 0.4950000000000001 L 0.4935 0.4905000000000001 L 0.5025000000000001 0.4875000000000001 L 0.498 0.4815000000000001 L 0.5025000000000001 0.4815000000000001 C 0.5025000000000001 0.4815000000000001 0.5055000000000001 0.4815000000000001 0.5055000000000001 0.4800000000000001 L 0.504 0.4785000000000001 C 0.5055000000000001 0.47550000000000014 0.51 0.47550000000000014 0.5115000000000001 0.47100000000000014 L 0.51 0.46950000000000014 C 0.5055000000000001 0.46800000000000014 0.501 0.46200000000000013 0.4965 0.46200000000000013 C 0.492 0.46050000000000013 0.486 0.46050000000000013 0.4815 0.46050000000000013 C 0.441 0.46050000000000013 0.3945 0.4875000000000001 0.3675 0.4995000000000001 L 0.3675 0.4980000000000001 C 0.3675 0.4890000000000001 0.369 0.4845000000000001 0.3705 0.46800000000000014 C 0.3765 0.41250000000000014 0.34950000000000003 0.2955000000000001 0.267 0.29700000000000015 C 0.1785 0.30000000000000016 0.111 0.4410000000000001 0.09 0.4965000000000001 L 0.09 0.4950000000000001 C 0.10200000000000001 0.4350000000000001 0.14100000000000001 0.3195000000000001 0.171 0.24150000000000016 M 0.0465 0.7275000000000001 C 0.048 0.7290000000000001 0.0525 0.7305000000000001 0.054 0.7320000000000001 L 0.0525 0.7245000000000001 L 0.057 0.7215000000000001 C 0.06 0.7110000000000001 0.057 0.7020000000000002 0.0615 0.6915000000000001 C 0.0885 0.6240000000000001 0.2085 0.3525000000000001 0.2715 0.3510000000000001 C 0.3045 0.34950000000000014 0.2715 0.5070000000000001 0.249 0.5445000000000001 C 0.17400000000000002 0.5940000000000001 0.10350000000000001 0.6645000000000001 0.054 0.7320000000000001 C 0.0525 0.7335000000000002 0.0525 0.7350000000000001 0.051000000000000004 0.7365000000000002 M 0.114 0.7695000000000001 L 0.111 0.7680000000000001 L 0.111 0.7695000000000001 C 0.1095 0.7755000000000001 0.105 0.7770000000000001 0.099 0.7815000000000001 L 0.093 0.7785000000000001 C 0.132 0.7245000000000001 0.183 0.6690000000000002 0.21 0.6480000000000001 L 0.1995 0.6615000000000001 C 0.1785 0.6960000000000002 0.147 0.7455000000000002 0.114 0.7695000000000001 M 0.52952490234375 0.5430000000000001 C 0.52052490234375 0.5610000000000002 0.51152490234375 0.5685000000000001 0.51152490234375 0.5880000000000001 C 0.51152490234375 0.6075000000000002 0.52802490234375 0.6240000000000001 0.5415249023437501 0.6240000000000001 C 0.60152490234375 0.6240000000000001 0.66302490234375 0.6045000000000001 0.72152490234375 0.6015000000000001 C 0.73652490234375 0.5985000000000001 0.7530249023437501 0.5985000000000001 0.76502490234375 0.5970000000000001 C 0.77552490234375 0.5970000000000001 0.80252490234375 0.5970000000000001 0.80852490234375 0.5970000000000001 C 0.80852490234375 0.5925000000000001 0.8175249023437501 0.5925000000000001 0.81902490234375 0.5925000000000001 C 0.81902490234375 0.5865000000000001 0.81902490234375 0.5850000000000002 0.81902490234375 0.5805000000000001 C 0.82052490234375 0.5805000000000001 0.82052490234375 0.5760000000000001 0.82052490234375 0.5760000000000001 C 0.82052490234375 0.5625000000000001 0.80852490234375 0.5505000000000001 0.80252490234375 0.5430000000000001 C 0.78152490234375 0.5310000000000001 0.75452490234375 0.5310000000000001 0.73052490234375 0.5310000000000001 C 0.69002490234375 0.5310000000000001 0.64802490234375 0.5340000000000001 0.60902490234375 0.5385000000000002 C 0.58502490234375 0.5430000000000001 0.56252490234375 0.5490000000000002 0.54002490234375 0.5490000000000002 C 0.53702490234375 0.5490000000000002 0.53252490234375 0.5490000000000002 0.52952490234375 0.5430000000000001 M 0.9570673828125 0.30600000000000016 L 0.9810673828125 0.29700000000000015 C 0.9945673828125 0.2865000000000001 1.0275673828125 0.2715000000000001 1.0275673828125 0.2550000000000001 C 1.0275673828125 0.2550000000000001 1.0275673828125 0.25350000000000006 1.0260673828125 0.2520000000000001 L 1.0215673828125 0.23550000000000015 C 1.0170673828125 0.2280000000000001 1.0020673828125 0.21900000000000008 0.9900673828125 0.21900000000000008 C 0.9825673828125 0.21900000000000008 0.9750673828125 0.22050000000000014 0.9660673828125 0.22350000000000014 C 0.9450673828125 0.23850000000000016 0.9315673828125 0.25650000000000006 0.9300673828125 0.2805000000000001 C 0.9300673828125 0.2835000000000001 0.9405673828125 0.2985000000000001 0.9450673828125 0.2985000000000001 L 0.9480673828125 0.2985000000000001 L 0.9570673828125 0.3045000000000001 M 1.1790673828125 0.4275000000000001 L 1.1715673828125 0.4335000000000001 C 1.0710673828125 0.5595000000000001 0.9675673828125 0.7155000000000001 0.9210673828125 0.7125000000000001 C 0.9165673828125 0.7125000000000001 0.9135673828125 0.7110000000000001 0.9135673828125 0.7065000000000001 C 0.9000673828125 0.6375000000000002 0.9555673828125 0.4980000000000001 0.9810673828125 0.3825000000000001 C 0.9825673828125 0.3735000000000001 0.9795673828125 0.3615000000000001 0.9765673828125 0.3525000000000001 C 0.9720673828125 0.34500000000000014 0.9660673828125 0.34050000000000014 0.9555673828125 0.33900000000000013 C 0.9450673828125 0.33900000000000013 0.9180673828125 0.33900000000000013 0.9075673828125 0.34050000000000014 L 0.9015673828125 0.34500000000000014 C 0.8895673828125 0.3750000000000001 0.8220673828125 0.5400000000000001 0.8175673828125 0.6405000000000001 C 0.8130673828125 0.7200000000000001 0.8730673828125 0.7560000000000001 0.9180673828125 0.7680000000000001 C 0.9450673828125 0.7680000000000001 0.9585673828125 0.7560000000000001 0.9810673828125 0.7470000000000001 C 1.0515673828125 0.687 1.1010673828125 0.6195000000000002 1.1625673828125 0.5250000000000001 C 1.1595673828125 0.5250000000000001 1.1625673828125 0.5235000000000001 1.1625673828125 0.5220000000000001 C 1.1655673828125 0.5085000000000002 1.1715673828125 0.4905000000000001 1.1775673828125 0.4785000000000001 L 1.1745673828125 0.47700000000000015 C 1.1775673828125 0.47250000000000014 1.1790673828125 0.46800000000000014 1.1790673828125 0.46350000000000013 C 1.1790673828125 0.4515000000000001 1.1775673828125 0.4410000000000001 1.1790673828125 0.4275000000000001 M 1.026049072265625 0.18300000000000016 C 1.078549072265625 0.18300000000000016 1.152049072265625 0.1755000000000001 1.230049072265625 0.1665000000000001 C 1.159549072265625 0.3630000000000001 1.075549072265625 0.552 1.086049072265625 0.6885000000000001 C 1.089049072265625 0.7290000000000001 1.111549072265625 0.8025000000000001 1.174549072265625 0.8175000000000001 C 1.198549072265625 0.8175000000000001 1.216549072265625 0.8145000000000001 1.234549072265625 0.7950000000000002 C 1.291549072265625 0.7455000000000002 1.4040490722656251 0.6045000000000001 1.419049072265625 0.5475000000000001 L 1.419049072265625 0.5355000000000001 C 1.4205490722656249 0.5310000000000001 1.423549072265625 0.5205000000000002 1.426549072265625 0.5115000000000001 C 1.426549072265625 0.5085000000000002 1.441549072265625 0.4785000000000001 1.440049072265625 0.47700000000000015 C 1.441549072265625 0.47250000000000014 1.440049072265625 0.46950000000000014 1.440049072265625 0.46650000000000014 L 1.4385490722656251 0.46350000000000013 C 1.4385490722656251 0.46050000000000013 1.437049072265625 0.4440000000000001 1.435549072265625 0.4410000000000001 L 1.431049072265625 0.4395000000000001 L 1.428049072265625 0.4410000000000001 C 1.368049072265625 0.552 1.216549072265625 0.7695000000000001 1.180549072265625 0.7680000000000001 C 1.153549072265625 0.6840000000000002 1.203049072265625 0.5505000000000001 1.225549072265625 0.46800000000000014 C 1.287049072265625 0.33600000000000013 1.327549072265625 0.2340000000000001 1.341049072265625 0.15450000000000008 C 1.368049072265625 0.15300000000000014 1.395049072265625 0.15000000000000013 1.419049072265625 0.15000000000000013 C 1.429549072265625 0.15000000000000013 1.440049072265625 0.15000000000000013 1.449049072265625 0.15150000000000008 C 1.504549072265625 0.15150000000000008 1.543549072265625 0.16200000000000014 1.540549072265625 0.1695000000000001 L 1.543549072265625 0.1695000000000001 C 1.563049072265625 0.1140000000000001 1.4910490722656249 0.09750000000000014 1.407049072265625 0.09750000000000014 C 1.387549072265625 0.09750000000000014 1.366549072265625 0.09900000000000009 1.347049072265625 0.10050000000000014 C 1.348549072265625 0.08250000000000013 1.347049072265625 0.06450000000000011 1.345549072265625 0.0495000000000001 C 1.342549072265625 0.0465000000000001 1.339549072265625 0.043500000000000094 1.339549072265625 0.03750000000000009 C 1.339549072265625 0.02100000000000013 1.293049072265625 0.012000000000000122 1.279549072265625 0.012000000000000122 C 1.276549072265625 0.013500000000000068 1.276549072265625 0.02100000000000013 1.275049072265625 0.027000000000000135 C 1.267549072265625 0.05400000000000016 1.258549072265625 0.08250000000000013 1.249549072265625 0.10950000000000015 C 1.237549072265625 0.1110000000000001 1.225549072265625 0.1110000000000001 1.219549072265625 0.11250000000000016 C 1.155049072265625 0.12150000000000016 1.069549072265625 0.13050000000000006 1.002049072265625 0.13050000000000006 C 0.961549072265625 0.13050000000000006 0.928549072265625 0.12750000000000006 0.907549072265625 0.11850000000000016 C 0.898549072265625 0.11550000000000016 0.898549072265625 0.11850000000000016 0.891049072265625 0.1080000000000001 C 0.891049072265625 0.1080000000000001 0.892549072265625 0.09750000000000014 0.888049072265625 0.10350000000000015 L 0.888049072265625 0.1080000000000001 C 0.862549072265625 0.1815000000000001 0.984049072265625 0.18300000000000016 1.021549072265625 0.18300000000000016 C 1.023049072265625 0.18300000000000016 1.024549072265625 0.18300000000000016 1.026049072265625 0.18300000000000016 M 1.60208056640625 0.34950000000000014 C 1.62308056640625 0.3615000000000001 1.62608056640625 0.4305000000000001 1.63658056640625 0.4365000000000001 C 1.6380805664062499 0.4380000000000001 1.64108056640625 0.4380000000000001 1.64258056640625 0.4380000000000001 C 1.65758056640625 0.4380000000000001 1.6845805664062499 0.4185000000000001 1.6845805664062499 0.3915000000000001 C 1.6845805664062499 0.3510000000000001 1.67408056640625 0.33150000000000013 1.64708056640625 0.3075000000000001 C 1.63958056640625 0.3015000000000001 1.58258056640625 0.28800000000000014 1.56308056640625 0.2835000000000001 C 1.55408056640625 0.2835000000000001 1.54658056640625 0.2835000000000001 1.53758056640625 0.2895000000000001 C 1.44758056640625 0.34350000000000014 1.35308056640625 0.5205000000000002 1.35308056640625 0.6330000000000001 C 1.35308056640625 0.7095000000000001 1.42358056640625 0.7860000000000001 1.50008056640625 0.7860000000000001 C 1.58408056640625 0.7860000000000001 1.65758056640625 0.7110000000000001 1.71158056640625 0.6435000000000002 C 1.71608056640625 0.6405000000000001 1.71908056640625 0.6375000000000002 1.72058056640625 0.6315000000000002 C 1.72508056640625 0.6300000000000001 1.72508056640625 0.6285000000000001 1.7265805664062501 0.6255000000000002 L 1.72958056640625 0.6210000000000001 C 1.73558056640625 0.6150000000000001 1.7385805664062501 0.6105000000000002 1.74008056640625 0.6045000000000001 C 1.74608056640625 0.5985000000000001 1.74908056640625 0.5940000000000001 1.7550805664062499 0.5880000000000001 L 1.75208056640625 0.5850000000000002 C 1.7550805664062499 0.5805000000000001 1.75658056640625 0.5775000000000001 1.75808056640625 0.5760000000000001 C 1.75808056640625 0.5745000000000001 1.75808056640625 0.5745000000000001 1.76108056640625 0.5715000000000001 L 1.76558056640625 0.5670000000000002 L 1.76558056640625 0.5625000000000001 C 1.7670805664062499 0.5610000000000002 1.7670805664062499 0.5610000000000002 1.7670805664062499 0.5610000000000002 L 1.7670805664062499 0.5595000000000001 C 1.77008056640625 0.558 1.7730805664062501 0.5535000000000001 1.77458056640625 0.5490000000000002 L 1.77908056640625 0.5445000000000001 C 1.78358056640625 0.5385000000000002 1.78958056640625 0.5295000000000001 1.7970805664062501 0.5220000000000001 C 1.80008056640625 0.5070000000000001 1.83308056640625 0.4485000000000001 1.84658056640625 0.4305000000000001 L 1.84508056640625 0.4260000000000001 C 1.84658056640625 0.4245000000000001 1.84658056640625 0.4245000000000001 1.84808056640625 0.4215000000000001 C 1.84808056640625 0.4185000000000001 1.84808056640625 0.4185000000000001 1.84808056640625 0.4170000000000001 L 1.84808056640625 0.4155000000000001 L 1.8435805664062501 0.39450000000000013 L 1.8435805664062501 0.3870000000000001 L 1.83908056640625 0.3855000000000001 L 1.83758056640625 0.3795000000000001 C 1.80308056640625 0.40500000000000014 1.76408056640625 0.46800000000000014 1.73558056640625 0.5070000000000001 C 1.69508056640625 0.5625000000000001 1.56908056640625 0.7245000000000001 1.49708056640625 0.7245000000000001 C 1.47008056640625 0.7230000000000001 1.45808056640625 0.6675000000000001 1.45808056640625 0.6495000000000002 C 1.45808056640625 0.5040000000000001 1.57508056640625 0.34950000000000014 1.60208056640625 0.34950000000000014 M 2.08955859375 0.3795000000000001 C 2.10155859375 0.3795000000000001 2.11355859375 0.3795000000000001 2.12555859375 0.3810000000000001 L 2.1285585937500002 0.3795000000000001 C 2.12705859375 0.3795000000000001 2.12405859375 0.3735000000000001 2.12405859375 0.3735000000000001 C 2.12405859375 0.3720000000000001 2.12405859375 0.3705000000000001 2.12555859375 0.3705000000000001 L 2.12405859375 0.3645000000000001 L 2.1285585937500002 0.3630000000000001 L 2.12705859375 0.3615000000000001 L 2.14205859375 0.34950000000000014 C 2.13605859375 0.33600000000000013 2.11055859375 0.33300000000000013 2.08505859375 0.33300000000000013 C 2.06705859375 0.33300000000000013 2.04755859375 0.33450000000000013 2.03855859375 0.33450000000000013 C 2.00555859375 0.33750000000000013 1.96205859375 0.34650000000000014 1.92605859375 0.3585000000000001 C 1.93505859375 0.34350000000000014 1.93655859375 0.3600000000000001 1.94255859375 0.33750000000000013 C 1.93055859375 0.31800000000000006 1.90355859375 0.30000000000000016 1.8795585937500001 0.30000000000000016 C 1.87205859375 0.30000000000000016 1.86455859375 0.3015000000000001 1.85855859375 0.3045000000000001 C 1.84055859375 0.3105000000000001 1.69505859375 0.5445000000000001 1.70405859375 0.6825000000000001 C 1.70555859375 0.7395000000000002 1.75505859375 0.7755000000000001 1.80905859375 0.7755000000000001 C 1.86155859375 0.7740000000000001 1.91555859375 0.6960000000000002 1.93355859375 0.6525000000000001 C 1.95155859375 0.6060000000000001 1.97855859375 0.5115000000000001 1.97555859375 0.46050000000000013 C 1.97405859375 0.4410000000000001 1.97105859375 0.4185000000000001 1.96355859375 0.40050000000000013 C 2.00255859375 0.3915000000000001 2.04305859375 0.3825000000000001 2.08955859375 0.3795000000000001 M 1.79255859375 0.7140000000000001 C 1.79105859375 0.6855000000000001 1.81055859375 0.6045000000000001 1.83155859375 0.5445000000000001 C 1.83755859375 0.5355000000000001 1.86305859375 0.46650000000000014 1.89455859375 0.4155000000000001 C 1.89755859375 0.4230000000000001 1.90055859375 0.4275000000000001 1.90055859375 0.4350000000000001 C 1.90655859375 0.5070000000000001 1.85705859375 0.6645000000000001 1.80455859375 0.7200000000000001 C 1.80305859375 0.7245000000000001 1.80155859375 0.7290000000000001 1.79555859375 0.7290000000000001 C 1.79405859375 0.7230000000000001 1.79405859375 0.7185000000000001 1.79255859375 0.7140000000000001 M 2.550049072265625 0.45750000000000013 C 2.544049072265625 0.46200000000000013 2.515549072265625 0.5055000000000001 2.5080490722656252 0.5205000000000002 C 2.454049072265625 0.6120000000000001 2.380549072265625 0.7230000000000001 2.3445490722656253 0.7320000000000001 L 2.343049072265625 0.7320000000000001 C 2.317549072265625 0.6495000000000002 2.3910490722656252 0.4815000000000001 2.373049072265625 0.4185000000000001 C 2.371549072265625 0.4140000000000001 2.371549072265625 0.40650000000000014 2.370049072265625 0.40350000000000014 C 2.362549072265625 0.3855000000000001 2.319049072265625 0.3690000000000001 2.292049072265625 0.3645000000000001 C 2.253049072265625 0.3675000000000001 2.173549072265625 0.47250000000000014 2.158549072265625 0.4890000000000001 L 2.161549072265625 0.4845000000000001 C 2.172049072265625 0.4500000000000001 2.197549072265625 0.3510000000000001 2.152549072265625 0.33600000000000013 C 2.137549072265625 0.33150000000000013 2.104549072265625 0.3255000000000001 2.095549072265625 0.32400000000000007 L 2.094049072265625 0.33300000000000013 C 2.094049072265625 0.33450000000000013 2.094049072265625 0.34050000000000014 2.094049072265625 0.34200000000000014 C 2.098549072265625 0.39750000000000013 2.001049072265625 0.6285000000000001 2.005549072265625 0.7305000000000001 C 2.005549072265625 0.7410000000000001 2.008549072265625 0.7455000000000002 2.011549072265625 0.7545000000000002 L 2.014549072265625 0.7560000000000001 C 2.020549072265625 0.7590000000000001 2.020549072265625 0.7650000000000001 2.026549072265625 0.7695000000000001 C 2.032549072265625 0.7695000000000001 2.053549072265625 0.7785000000000001 2.059549072265625 0.7845000000000001 L 2.062549072265625 0.7815000000000001 C 2.067049072265625 0.7830000000000001 2.064049072265625 0.7845000000000001 2.068549072265625 0.7860000000000001 C 2.073049072265625 0.7860000000000001 2.074549072265625 0.7860000000000001 2.076049072265625 0.7860000000000001 C 2.076049072265625 0.7860000000000001 2.077549072265625 0.7860000000000001 2.080549072265625 0.7860000000000001 C 2.082049072265625 0.7845000000000001 2.085049072265625 0.7830000000000001 2.089549072265625 0.7830000000000001 C 2.092549072265625 0.7770000000000001 2.095549072265625 0.7650000000000001 2.101549072265625 0.7485000000000002 C 2.139049072265625 0.6345000000000001 2.209549072265625 0.5340000000000001 2.281549072265625 0.4410000000000001 C 2.281549072265625 0.4410000000000001 2.284549072265625 0.4335000000000001 2.284549072265625 0.4410000000000001 C 2.287549072265625 0.4800000000000001 2.239549072265625 0.6060000000000001 2.244049072265625 0.6825000000000001 C 2.245549072265625 0.7410000000000001 2.289049072265625 0.7830000000000001 2.346049072265625 0.7830000000000001 C 2.449549072265625 0.7605000000000002 2.514049072265625 0.6195000000000002 2.557549072265625 0.5355000000000001 C 2.560549072265625 0.5205000000000002 2.553049072265625 0.5055000000000001 2.559049072265625 0.4890000000000001 C 2.559049072265625 0.4815000000000001 2.560549072265625 0.47700000000000015 2.553049072265625 0.47250000000000014 C 2.554549072265625 0.46650000000000014 2.554549072265625 0.45900000000000013 2.550049072265625 0.45750000000000013 M 2.493087890625 0.7500000000000001 C 2.493087890625 0.7770000000000001 2.538087890625 0.8115000000000001 2.563587890625 0.8115000000000001 C 2.626587890625 0.8115000000000001 2.727087890625 0.7545000000000002 2.727087890625 0.6855000000000001 C 2.727087890625 0.5985000000000001 2.629587890625 0.5115000000000001 2.629587890625 0.4395000000000001 C 2.629587890625 0.39450000000000013 2.701587890625 0.33750000000000013 2.746587890625 0.33750000000000013 C 2.767587890625 0.34650000000000014 2.760087890625 0.3555000000000001 2.755587890625 0.3795000000000001 C 2.754087890625 0.3885000000000001 2.749587890625 0.40950000000000014 2.751087890625 0.4170000000000001 C 2.760087890625 0.4215000000000001 2.761587890625 0.4260000000000001 2.773587890625 0.4260000000000001 C 2.796087890625 0.4260000000000001 2.817087890625 0.3555000000000001 2.8260878906249998 0.34050000000000014 L 2.8260878906249998 0.33600000000000013 C 2.8260878906249998 0.31800000000000006 2.751087890625 0.25950000000000006 2.733087890625 0.25950000000000006 C 2.646087890625 0.25950000000000006 2.535087890625 0.3600000000000001 2.535087890625 0.4455000000000001 C 2.535087890625 0.5415000000000001 2.632587890625 0.6480000000000001 2.632587890625 0.6960000000000002 C 2.632587890625 0.7275000000000001 2.580087890625 0.7560000000000001 2.551587890625 0.7560000000000001 L 2.548587890625 0.7500000000000001 L 2.580087890625 0.7020000000000002 L 2.575587890625 0.6960000000000002 L 2.566587890625 0.7050000000000001 C 2.569587890625 0.7020000000000002 2.572587890625 0.6930000000000001 2.575587890625 0.6915000000000001 L 2.572587890625 0.687 L 2.566587890625 0.6945000000000001 C 2.563587890625 0.6930000000000001 2.565087890625 0.6930000000000001 2.563587890625 0.6885000000000001 L 2.544087890625 0.7065000000000001 L 2.544087890625 0.7050000000000001 L 2.553087890625 0.6930000000000001 L 2.547087890625 0.6915000000000001 C 2.539587890625 0.6930000000000001 2.493087890625 0.7230000000000001 2.493087890625 0.7500000000000001 M 3.193585693359375 0.7770000000000001 C 3.237085693359375 0.7425000000000002 3.321085693359375 0.6195000000000002 3.333085693359375 0.5760000000000001 C 3.337585693359375 0.5715000000000001 3.342085693359375 0.5670000000000002 3.340585693359375 0.5610000000000002 C 3.346585693359375 0.5595000000000001 3.345085693359375 0.5535000000000001 3.345085693359375 0.552 C 3.349585693359375 0.5430000000000001 3.363085693359375 0.5235000000000001 3.360085693359375 0.5145000000000002 C 3.3660856933593752 0.5085000000000002 3.372085693359375 0.4980000000000001 3.3660856933593752 0.4935000000000001 L 3.3660856933593752 0.4905000000000001 L 3.372085693359375 0.4845000000000001 L 3.372085693359375 0.4815000000000001 C 3.370585693359375 0.4830000000000001 3.369085693359375 0.4830000000000001 3.369085693359375 0.4830000000000001 C 3.3660856933593752 0.4830000000000001 3.367585693359375 0.4785000000000001 3.367585693359375 0.47550000000000014 C 3.363085693359375 0.47550000000000014 3.363085693359375 0.47100000000000014 3.364585693359375 0.47100000000000014 L 3.363085693359375 0.46650000000000014 C 3.363085693359375 0.46950000000000014 3.360085693359375 0.47100000000000014 3.358585693359375 0.47550000000000014 L 3.358585693359375 0.47250000000000014 C 3.360085693359375 0.46800000000000014 3.360085693359375 0.46200000000000013 3.360085693359375 0.45750000000000013 C 3.364585693359375 0.4515000000000001 3.358585693359375 0.4515000000000001 3.358585693359375 0.4455000000000001 C 3.358585693359375 0.4440000000000001 3.360085693359375 0.4425000000000001 3.358585693359375 0.4410000000000001 L 3.358585693359375 0.4335000000000001 C 3.291085693359375 0.5415000000000001 3.229585693359375 0.6525000000000001 3.169585693359375 0.7275000000000001 C 3.162085693359375 0.7305000000000001 3.159085693359375 0.7335000000000002 3.156085693359375 0.7335000000000002 L 3.151585693359375 0.7335000000000002 C 3.135085693359375 0.6825000000000001 3.196585693359375 0.46650000000000014 3.219085693359375 0.3885000000000001 C 3.223585693359375 0.3675000000000001 3.2130856933593748 0.3555000000000001 3.198085693359375 0.3510000000000001 C 3.189085693359375 0.34800000000000014 3.181585693359375 0.34800000000000014 3.175585693359375 0.34800000000000014 C 3.168085693359375 0.34800000000000014 3.162085693359375 0.34800000000000014 3.153085693359375 0.34500000000000014 L 3.150085693359375 0.34650000000000014 L 3.150085693359375 0.3510000000000001 C 3.090085693359375 0.4170000000000001 2.979085693359375 0.6015000000000001 2.919085693359375 0.6570000000000001 C 2.919085693359375 0.5610000000000002 2.997085693359375 0.4305000000000001 2.997085693359375 0.3525000000000001 C 2.997085693359375 0.33750000000000013 2.988085693359375 0.3195000000000001 2.973085693359375 0.31500000000000017 C 2.967085693359375 0.3105000000000001 2.940085693359375 0.30900000000000016 2.925085693359375 0.3075000000000001 C 2.923585693359375 0.3075000000000001 2.919085693359375 0.3075000000000001 2.914585693359375 0.3075000000000001 C 2.910085693359375 0.3075000000000001 2.907085693359375 0.3075000000000001 2.905585693359375 0.30900000000000016 C 2.907085693359375 0.3105000000000001 2.907085693359375 0.3135000000000001 2.907085693359375 0.31500000000000017 L 2.904085693359375 0.3285000000000001 C 2.878585693359375 0.4335000000000001 2.811085693359375 0.5430000000000001 2.811085693359375 0.6525000000000001 C 2.811085693359375 0.6855000000000001 2.823085693359375 0.7380000000000001 2.863585693359375 0.7365000000000002 C 2.869585693359375 0.7395000000000002 2.896585693359375 0.7410000000000001 2.905585693359375 0.7410000000000001 C 2.961085693359375 0.7410000000000001 3.069085693359375 0.5700000000000001 3.093085693359375 0.5325000000000002 C 3.081085693359375 0.5700000000000001 3.043585693359375 0.6915000000000001 3.072085693359375 0.7545000000000002 C 3.084085693359375 0.7770000000000001 3.123085693359375 0.7905000000000001 3.153085693359375 0.7935000000000001 C 3.177085693359375 0.7845000000000001 3.177085693359375 0.7860000000000001 3.193585693359375 0.7770000000000001 M 3.673610595703125 0.41250000000000014 L 3.673610595703125 0.40500000000000014 C 3.6541105957031252 0.4260000000000001 3.637610595703125 0.4545000000000001 3.622610595703125 0.4785000000000001 C 3.591110595703125 0.5235000000000001 3.505610595703125 0.6480000000000001 3.397610595703125 0.7590000000000001 L 3.391610595703125 0.7590000000000001 C 3.381110595703125 0.7410000000000001 3.382610595703125 0.7185000000000001 3.382610595703125 0.6960000000000002 C 3.382610595703125 0.6015000000000001 3.417110595703125 0.5040000000000001 3.454610595703125 0.40650000000000014 C 3.528110595703125 0.24150000000000016 3.561110595703125 0.07500000000000007 3.543110595703125 0.03600000000000014 C 3.528110595703125 0.007500000000000062 3.490610595703125 0.0045000000000000595 3.472610595703125 1.1102230246251565e-16 L 3.469610595703125 0.0015000000000000568 C 3.451610595703125 0.03750000000000009 3.438110595703125 0.09300000000000008 3.426110595703125 0.13050000000000006 C 3.370610595703125 0.30000000000000016 3.283610595703125 0.4995000000000001 3.283610595703125 0.6825000000000001 C 3.283610595703125 0.7320000000000001 3.307610595703125 0.7935000000000001 3.375110595703125 0.8055000000000001 C 3.381110595703125 0.8070000000000002 3.385610595703125 0.8070000000000002 3.391610595703125 0.8070000000000002 C 3.459110595703125 0.8070000000000002 3.504110595703125 0.7305000000000001 3.543110595703125 0.6825000000000001 C 3.555110595703125 0.6660000000000001 3.574610595703125 0.6420000000000001 3.5836105957031252 0.6240000000000001 C 3.589610595703125 0.6210000000000001 3.591110595703125 0.6150000000000001 3.595610595703125 0.6105000000000002 L 3.598610595703125 0.6030000000000001 L 3.604610595703125 0.6015000000000001 L 3.601610595703125 0.5970000000000001 L 3.606110595703125 0.5955000000000001 C 3.609110595703125 0.5880000000000001 3.625610595703125 0.5610000000000002 3.628610595703125 0.558 C 3.631610595703125 0.5505000000000001 3.636110595703125 0.5475000000000001 3.640610595703125 0.5400000000000001 L 3.636110595703125 0.5355000000000001 C 3.637610595703125 0.5310000000000001 3.643610595703125 0.5265000000000002 3.645110595703125 0.5205000000000002 C 3.636110595703125 0.5325000000000002 3.628610595703125 0.5445000000000001 3.619610595703125 0.5565000000000001 C 3.625610595703125 0.5415000000000001 3.661610595703125 0.4860000000000001 3.661610595703125 0.47700000000000015 L 3.661610595703125 0.47250000000000014 C 3.655610595703125 0.4785000000000001 3.6541105957031252 0.4860000000000001 3.651110595703125 0.4890000000000001 C 3.652610595703125 0.4815000000000001 3.655610595703125 0.47700000000000015 3.661610595703125 0.46950000000000014 L 3.663110595703125 0.46200000000000013 C 3.663110595703125 0.46200000000000013 3.663110595703125 0.46050000000000013 3.663110595703125 0.46050000000000013 L 3.660110595703125 0.46200000000000013 L 3.658610595703125 0.4545000000000001 C 3.660110595703125 0.4530000000000001 3.669110595703125 0.4365000000000001 3.669110595703125 0.4335000000000001 C 3.669110595703125 0.4305000000000001 3.670610595703125 0.4260000000000001 3.672110595703125 0.4230000000000001 C 3.673610595703125 0.4185000000000001 3.673610595703125 0.4170000000000001 3.673610595703125 0.41250000000000014 M 3.774072509765625 0.027000000000000135 C 3.765072509765625 0.05850000000000011 3.754572509765625 0.09150000000000014 3.744072509765625 0.12450000000000017 C 3.682572509765625 0.13050000000000006 3.624072509765625 0.14400000000000013 3.567072509765625 0.14400000000000013 L 3.528072509765625 0.13950000000000007 L 3.528072509765625 0.15150000000000008 C 3.528072509765625 0.15600000000000014 3.534072509765625 0.1725000000000001 3.538572509765625 0.1785000000000001 C 3.546072509765625 0.18300000000000016 3.561072509765625 0.19200000000000006 3.591072509765625 0.19200000000000006 C 3.636072509765625 0.19200000000000006 3.679572509765625 0.1875000000000001 3.724572509765625 0.1815000000000001 C 3.655572509765625 0.3735000000000001 3.574572509765625 0.5565000000000001 3.585072509765625 0.6885000000000001 C 3.589572509765625 0.7290000000000001 3.610572509765625 0.8025000000000001 3.673572509765625 0.8175000000000001 C 3.700572509765625 0.8175000000000001 3.714072509765625 0.8160000000000002 3.735072509765625 0.7950000000000002 C 3.790572509765625 0.7455000000000002 3.904572509765625 0.6045000000000001 3.918072509765625 0.5475000000000001 L 3.918072509765625 0.5355000000000001 C 3.921072509765625 0.5310000000000001 3.924072509765625 0.5205000000000002 3.925572509765625 0.5115000000000001 C 3.925572509765625 0.5085000000000002 3.942072509765625 0.4785000000000001 3.940572509765625 0.47700000000000015 C 3.942072509765625 0.47250000000000014 3.940572509765625 0.46950000000000014 3.940572509765625 0.46650000000000014 L 3.939072509765625 0.46350000000000013 C 3.939072509765625 0.46050000000000013 3.936072509765625 0.4440000000000001 3.934572509765625 0.4410000000000001 L 3.931572509765625 0.4395000000000001 L 3.927072509765625 0.4410000000000001 C 3.868572509765625 0.552 3.717072509765625 0.7695000000000001 3.681072509765625 0.7680000000000001 C 3.654072509765625 0.6840000000000002 3.702072509765625 0.5505000000000001 3.726072509765625 0.46800000000000014 C 3.783072509765625 0.34500000000000014 3.822072509765625 0.24750000000000016 3.837072509765625 0.17100000000000015 C 3.847572509765625 0.17100000000000015 3.858072509765625 0.17100000000000015 3.868572509765625 0.17100000000000015 C 3.898572509765625 0.17100000000000015 3.928572509765625 0.1725000000000001 3.960072509765625 0.1815000000000001 C 3.961572509765625 0.1785000000000001 3.958572509765625 0.1665000000000001 3.958572509765625 0.16500000000000015 C 3.958572509765625 0.13050000000000006 3.886572509765625 0.12150000000000016 3.846072509765625 0.11850000000000016 C 3.849072509765625 0.09300000000000008 3.849072509765625 0.07050000000000012 3.844572509765625 0.0495000000000001 C 3.843072509765625 0.0465000000000001 3.840072509765625 0.043500000000000094 3.840072509765625 0.03750000000000009 C 3.840072509765625 0.02100000000000013 3.793572509765625 0.012000000000000122 3.780072509765625 0.012000000000000122 C 3.777072509765625 0.013500000000000068 3.777072509765625 0.02100000000000013 3.774072509765625 0.027000000000000135 M 3.99606884765625 0.30600000000000016 L 4.02006884765625 0.29700000000000015 C 4.03356884765625 0.2865000000000001 4.06656884765625 0.2715000000000001 4.06656884765625 0.2550000000000001 C 4.06656884765625 0.2550000000000001 4.06656884765625 0.25350000000000006 4.06506884765625 0.2520000000000001 L 4.06056884765625 0.23550000000000015 C 4.05606884765625 0.2280000000000001 4.04106884765625 0.21900000000000008 4.02906884765625 0.21900000000000008 C 4.02156884765625 0.21900000000000008 4.01406884765625 0.22050000000000014 4.00506884765625 0.22350000000000014 C 3.98406884765625 0.23850000000000016 3.97056884765625 0.25650000000000006 3.96906884765625 0.2805000000000001 C 3.96906884765625 0.2835000000000001 3.97956884765625 0.2985000000000001 3.98406884765625 0.2985000000000001 L 3.98706884765625 0.2985000000000001 L 3.99606884765625 0.3045000000000001 M 4.21806884765625 0.4275000000000001 L 4.21056884765625 0.4335000000000001 C 4.11006884765625 0.5595000000000001 4.00656884765625 0.7155000000000001 3.96006884765625 0.7125000000000001 C 3.95556884765625 0.7125000000000001 3.95256884765625 0.7110000000000001 3.95256884765625 0.7065000000000001 C 3.93906884765625 0.6375000000000002 3.99456884765625 0.4980000000000001 4.02006884765625 0.3825000000000001 C 4.02156884765625 0.3735000000000001 4.01856884765625 0.3615000000000001 4.01556884765625 0.3525000000000001 C 4.01106884765625 0.34500000000000014 4.00506884765625 0.34050000000000014 3.99456884765625 0.33900000000000013 C 3.98406884765625 0.33900000000000013 3.95706884765625 0.33900000000000013 3.94656884765625 0.34050000000000014 L 3.94056884765625 0.34500000000000014 C 3.92856884765625 0.3750000000000001 3.86106884765625 0.5400000000000001 3.85656884765625 0.6405000000000001 C 3.85206884765625 0.7200000000000001 3.91206884765625 0.7560000000000001 3.95706884765625 0.7680000000000001 C 3.98406884765625 0.7680000000000001 3.99756884765625 0.7560000000000001 4.02006884765625 0.7470000000000001 C 4.09056884765625 0.687 4.14006884765625 0.6195000000000002 4.20156884765625 0.5250000000000001 C 4.19856884765625 0.5250000000000001 4.20156884765625 0.5235000000000001 4.20156884765625 0.5220000000000001 C 4.20456884765625 0.5085000000000002 4.21056884765625 0.4905000000000001 4.21656884765625 0.4785000000000001 L 4.21356884765625 0.47700000000000015 C 4.21656884765625 0.47250000000000014 4.21806884765625 0.46800000000000014 4.21806884765625 0.46350000000000013 C 4.21806884765625 0.4515000000000001 4.21656884765625 0.4410000000000001 4.21806884765625 0.4275000000000001 M 4.651550537109375 0.45750000000000013 C 4.645550537109375 0.46200000000000013 4.617050537109375 0.5055000000000001 4.609550537109375 0.5205000000000002 C 4.555550537109375 0.6120000000000001 4.482050537109375 0.7230000000000001 4.446050537109375 0.7320000000000001 L 4.444550537109375 0.7320000000000001 C 4.419050537109375 0.6495000000000002 4.492550537109375 0.4815000000000001 4.474550537109375 0.4185000000000001 C 4.473050537109375 0.4140000000000001 4.473050537109375 0.40650000000000014 4.471550537109375 0.40350000000000014 C 4.464050537109375 0.3855000000000001 4.420550537109375 0.3690000000000001 4.393550537109375 0.3645000000000001 C 4.354550537109375 0.3675000000000001 4.275050537109375 0.47250000000000014 4.260050537109375 0.4890000000000001 L 4.263050537109375 0.4845000000000001 C 4.273550537109375 0.4500000000000001 4.299050537109375 0.3510000000000001 4.254050537109375 0.33600000000000013 C 4.239050537109375 0.33150000000000013 4.206050537109375 0.3255000000000001 4.197050537109375 0.32400000000000007 L 4.195550537109375 0.33300000000000013 C 4.195550537109375 0.33450000000000013 4.195550537109375 0.34050000000000014 4.195550537109375 0.34200000000000014 C 4.200050537109375 0.39750000000000013 4.102550537109375 0.6285000000000001 4.107050537109375 0.7305000000000001 C 4.107050537109375 0.7410000000000001 4.110050537109375 0.7455000000000002 4.113050537109375 0.7545000000000002 L 4.116050537109375 0.7560000000000001 C 4.122050537109375 0.7590000000000001 4.122050537109375 0.7650000000000001 4.128050537109375 0.7695000000000001 C 4.134050537109375 0.7695000000000001 4.155050537109375 0.7785000000000001 4.161050537109375 0.7845000000000001 L 4.164050537109375 0.7815000000000001 C 4.168550537109375 0.7830000000000001 4.165550537109375 0.7845000000000001 4.170050537109375 0.7860000000000001 C 4.174550537109375 0.7860000000000001 4.176050537109375 0.7860000000000001 4.177550537109375 0.7860000000000001 C 4.177550537109375 0.7860000000000001 4.179050537109375 0.7860000000000001 4.182050537109375 0.7860000000000001 C 4.183550537109375 0.7845000000000001 4.186550537109375 0.7830000000000001 4.191050537109375 0.7830000000000001 C 4.194050537109375 0.7770000000000001 4.197050537109375 0.7650000000000001 4.203050537109375 0.7485000000000002 C 4.240550537109375 0.6345000000000001 4.311050537109375 0.5340000000000001 4.383050537109375 0.4410000000000001 C 4.383050537109375 0.4410000000000001 4.386050537109375 0.4335000000000001 4.386050537109375 0.4410000000000001 C 4.389050537109375 0.4800000000000001 4.341050537109375 0.6060000000000001 4.345550537109375 0.6825000000000001 C 4.347050537109375 0.7410000000000001 4.390550537109375 0.7830000000000001 4.447550537109375 0.7830000000000001 C 4.551050537109375 0.7605000000000002 4.615550537109375 0.6195000000000002 4.659050537109375 0.5355000000000001 C 4.662050537109375 0.5205000000000002 4.654550537109375 0.5055000000000001 4.660550537109375 0.4890000000000001 C 4.660550537109375 0.4815000000000001 4.662050537109375 0.47700000000000015 4.654550537109375 0.47250000000000014 C 4.656050537109375 0.46650000000000014 4.656050537109375 0.45900000000000013 4.651550537109375 0.45750000000000013 M 5.24408935546875 0.46950000000000014 C 5.23808935546875 0.46950000000000014 5.23208935546875 0.47100000000000014 5.22458935546875 0.47100000000000014 L 5.2260893554687495 0.46800000000000014 L 5.24258935546875 0.46050000000000013 C 5.23808935546875 0.45900000000000013 5.23358935546875 0.45900000000000013 5.23058935546875 0.45750000000000013 L 5.23808935546875 0.4545000000000001 C 5.23058935546875 0.4530000000000001 5.22308935546875 0.4440000000000001 5.21408935546875 0.4440000000000001 C 5.21408935546875 0.4440000000000001 5.21258935546875 0.4440000000000001 5.21108935546875 0.4440000000000001 C 5.14808935546875 0.46200000000000013 5.11358935546875 0.4905000000000001 5.07008935546875 0.5085000000000002 L 5.07008935546875 0.5055000000000001 C 5.07008935546875 0.4785000000000001 5.07308935546875 0.4515000000000001 5.07308935546875 0.4245000000000001 C 5.07308935546875 0.41250000000000014 5.07008935546875 0.32400000000000007 5.06258935546875 0.30900000000000016 C 5.05808935546875 0.29700000000000015 5.04158935546875 0.2955000000000001 5.02658935546875 0.28800000000000014 L 5.02208935546875 0.2895000000000001 C 5.01308935546875 0.2895000000000001 5.01008935546875 0.2865000000000001 5.00708935546875 0.2865000000000001 C 4.98158935546875 0.2865000000000001 4.92458935546875 0.34350000000000014 4.90508935546875 0.3615000000000001 L 4.88108935546875 0.34500000000000014 C 4.86158935546875 0.34050000000000014 4.84508935546875 0.3195000000000001 4.82108935546875 0.3195000000000001 C 4.69358935546875 0.3195000000000001 4.56608935546875 0.5220000000000001 4.56608935546875 0.6240000000000001 C 4.56608935546875 0.6705000000000001 4.60958935546875 0.7410000000000001 4.66358935546875 0.7410000000000001 C 4.72658935546875 0.7410000000000001 4.87208935546875 0.5430000000000001 4.90808935546875 0.4965000000000001 C 4.94108935546875 0.4545000000000001 4.95458935546875 0.4260000000000001 4.98608935546875 0.3870000000000001 C 4.98608935546875 0.3810000000000001 4.98158935546875 0.5445000000000001 4.9695893554687505 0.5670000000000002 C 4.83908935546875 0.6585000000000001 4.69508935546875 0.8640000000000001 4.65008935546875 1.0155 L 4.64708935546875 1.02 C 4.64558935546875 1.0275 4.64108935546875 1.0335 4.64108935546875 1.0395 L 4.63508935546875 1.0455 C 4.63508935546875 1.0515 4.63658935546875 1.0575 4.63958935546875 1.0605000000000002 C 4.64108935546875 1.062 4.64408935546875 1.0650000000000002 4.64108935546875 1.0665000000000002 C 4.64558935546875 1.08 4.68158935546875 1.0965000000000003 4.68908935546875 1.1070000000000002 L 4.69058935546875 1.1070000000000002 C 4.70258935546875 1.1175000000000002 4.72958935546875 1.125 4.74308935546875 1.125 C 4.75808935546875 1.125 4.78958935546875 1.1085000000000003 4.80008935546875 1.1025 C 4.92008935546875 1.0425000000000002 5.03258935546875 0.7860000000000001 5.05058935546875 0.6495000000000002 L 5.06258935546875 0.5880000000000001 C 5.11508935546875 0.552 5.17808935546875 0.5130000000000001 5.2260893554687495 0.4860000000000001 L 5.23058935546875 0.47700000000000015 C 5.23508935546875 0.47550000000000014 5.23958935546875 0.47100000000000014 5.24408935546875 0.46950000000000014 M 4.65908935546875 0.6660000000000001 C 4.65458935546875 0.6345000000000001 4.66658935546875 0.5940000000000001 4.68008935546875 0.5700000000000001 C 4.71308935546875 0.5070000000000001 4.78958935546875 0.39750000000000013 4.84808935546875 0.39750000000000013 C 4.85558935546875 0.39750000000000013 4.86158935546875 0.39900000000000013 4.86908935546875 0.40350000000000014 C 4.85408935546875 0.4275000000000001 4.69058935546875 0.6495000000000002 4.65908935546875 0.6660000000000001 M 4.96058935546875 0.6690000000000002 C 4.96058935546875 0.6690000000000002 4.93808935546875 0.7425000000000002 4.93508935546875 0.7470000000000001 C 4.90658935546875 0.8265000000000001 4.83308935546875 0.9735000000000001 4.76258935546875 1.02 L 4.76108935546875 1.0170000000000001 C 4.76108935546875 1.02 4.75658935546875 1.0215 4.75358935546875 1.0215 C 4.75208935546875 1.0305000000000002 4.74008935546875 1.0350000000000001 4.72958935546875 1.038 L 4.72808935546875 1.038 C 4.72808935546875 0.9405000000000001 4.87958935546875 0.7410000000000001 4.94708935546875 0.6750000000000002 C 4.95158935546875 0.6705000000000001 4.95608935546875 0.6675000000000001 4.96058935546875 0.6645000000000001" fill="#102036" fill-rule="nonzero"></path></g><g></g></g><defs><clipPath id="SvgjsClipPath23761"><path d=" M 0.347267648442533 -4.739546734364934 h 4.489546734364934 v 4.489546734364934 h -4.489546734364934 Z"></path></clipPath><clipPath id="SvgjsClipPath2375918a3d8ea-07a3-415e-a367-a51a34e74730"><path d=" M 0.347267648442533 -4.739546734364934 L 4.836814382807467 -4.739546734364934 L 4.836814382807467 -0.25 L 0.347267648442533 -0.25 Z"></path></clipPath></defs></svg>